<?xml version="1.0" encoding="utf-8"?>
<!-- Generator: Adobe Illustrator 16.0.0, SVG Export Plug-In . SVG Version: 6.00 Build 0)  -->
<!DOCTYPE svg PUBLIC "-//W3C//DTD SVG 1.1//EN" "http://www.w3.org/Graphics/SVG/1.1/DTD/svg11.dtd">
<svg version="1.1" id="Layer_1" xmlns="http://www.w3.org/2000/svg" xmlns:xlink="http://www.w3.org/1999/xlink" x="0px" y="0px"
	 width="362px" height="126px" viewBox="0 0 362 126" enable-background="new 0 0 362 126" xml:space="preserve">
<g>
	<path fill-rule="evenodd" clip-rule="evenodd" fill="#FFFFFF" d="M38.755,121.588c-0.367-0.16-0.724-0.346-1.102-0.469
		c-1.316-0.426-1.965-1.27-2.045-2.699c-0.077-1.363-0.285-2.67-0.04-4.08c0.251-1.439,0.714-2.523,1.952-3.307
		c1.713-1.088,2.903-2.65,4.122-4.268c2.197-2.914,4.022-6.004,5.629-9.266c0.448-0.914,1.505-1.583,2.394-2.207
		c2.729-1.914,4.105-4.488,4.247-7.818c0.232-5.469-0.415-10.821-1.983-16.056c-0.235-0.787-0.833-1.465-1.296-2.25
		c0.269-0.178,0.487-0.351,0.728-0.477c5.612-2.947,10.575-6.762,14.975-11.304c0.845-0.872,1.379-0.998,2.243-0.087
		c0.623,0.656,1.221,1.183,1.323,2.199c0.057,0.567,0.594,1.146,1.037,1.6c1.705,1.746,3.47,3.433,5.189,5.166
		c0.458,0.46,0.933,0.952,1.223,1.519c2.293,4.489,4.628,8.962,6.772,13.523c0.996,2.12,0.566,2.723-1.43,3.973
		c-1.077,0.671-2.008,1.577-3.168,2.506c1.961,0.461,6.705-2.916,9.99-6.58c-0.258,0.568-0.422,1.206-0.792,1.688
		c-1.458,1.912-2.938,3.81-4.508,5.628c-0.417,0.482-1.149,0.756-1.791,0.969c-1.815,0.604-3.342,1.579-4.736,2.912
		c-4.922,4.705-9.911,9.342-14.898,13.979c-0.398,0.371-0.954,0.652-1.484,0.779c-0.99,0.238-1.422,0.85-1.541,1.787
		c-0.168,1.334-0.308,2.674-0.518,4c-0.201,1.27-0.589,1.527-1.729,0.957c-0.77-0.387-1.465-1.002-2.059-1.639
		c-0.768-0.822-1.401-1.77-2.246-2.865c-1.221,1.316-2.385,2.449-3.403,3.699c-1.415,1.738-2.741,3.551-4.054,5.367
		c-0.26,0.359-0.423,0.893-0.398,1.332c0.054,0.969-0.34,1.271-1.269,1.324c-1.211,0.066-2.414,0.301-3.618,0.463
		C39.897,121.588,39.327,121.588,38.755,121.588z M41.308,120.063c0.017-0.051,0.033-0.104,0.049-0.154
		c0.527-0.025,1.073,0.021,1.576-0.105c0.357-0.088,0.783-0.34,0.952-0.646c0.388-0.697-0.583-3.088-1.377-3.369
		c-1.109-0.391-2.246-0.732-3.398-0.959c-1.004-0.195-1.74,0.258-2.031,1.301c-0.428,1.529-0.17,2.689,0.844,3.051
		C39.017,119.57,40.176,119.773,41.308,120.063z M58.792,110.725c-0.079-0.654-0.144-0.98-0.151-1.303
		c-0.021-0.908-0.337-1.166-1.303-0.932c-2.222,0.539-2.029,0.625-0.938,2.262c0.045,0.068,0.083,0.139,0.12,0.213
		c0.359,0.707,0.791,1.576,1.665,1.242C58.588,112.057,58.668,111.061,58.792,110.725z M68.967,85.339
		c-1.938-1.958-6.61-2.212-8.19-0.348C63.675,84.183,66.359,84.06,68.967,85.339z"/>
	<path fill-rule="evenodd" clip-rule="evenodd" fill="#FFFFFF" d="M4.735,12.43c6.341,0.813,12.606,0.194,18.848-0.97
		c5.767-1.076,11.545-2.091,17.318-3.141c0.987-0.18,1.965-0.413,2.956-0.568c0.174-0.028,0.455,0.16,0.574,0.328
		c2.629,3.721,1.67,3.167,6.001,1.907c0.544-0.159,1.099-0.349,1.581-0.64c0.296-0.179,0.461-0.577,0.684-0.876
		c-0.361-0.123-0.718-0.263-1.086-0.36c-0.129-0.034-0.286,0.033-0.475-0.105c0.437-0.152,0.873-0.304,1.3-0.452
		c-0.057-0.645-0.109-1.221-0.178-1.991c0.563,0.369,0.925,0.606,1.353,0.887c-1.051,2.74,0.145,4.377,2.971,5.196
		c-0.47,0.404-0.758,0.652-1.164,1c0.405,0.088,0.709,0.154,1.094,0.237c-0.172,0.157-0.318,0.244-0.399,0.372
		c-0.324,0.508-0.629,1.027-0.941,1.543c0.625,0.287,1.226,0.667,1.882,0.832c0.714,0.181,1.48,0.161,2.369,0.241
		c-1.523,3.025-1.814,6.009-2.621,8.845c-0.266,0.933-0.579,1.871-1.016,2.732c-1.532,3.013-3.122,5.999-4.708,8.985
		c-0.3,0.565-0.407,1.009,0.212,1.46c5.125,3.726,8.655,8.78,11.739,14.197c0.239,0.421,0.346,0.935,0.643,1.3
		c0.266,0.325,0.712,0.504,1.19,0.821c-4.222,5.53-9.195,10.136-15.287,14.121c-0.066-1.068-0.253-1.866-0.138-2.618
		c0.356-2.341-0.683-4.396-1.244-6.541c-0.138-0.525-0.724-0.965-1.17-1.374c-4.69-4.294-9.382-8.583-14.102-12.846
		c-0.935-0.844-1.146-1.898-1.287-3.058c-0.149-1.227,0.02-2.436-1.183-3.517c-0.796-0.714-0.819-2.288-1.188-3.477
		c1.213-0.831,2.232-0.134,3.388,0.276c3.127,1.112,6.102,0.099,8.985-1.062c1.971-0.794,1.923-0.925,1.771-3.026
		c-0.04-0.543,0.241-1.108,0.389-1.724c-0.141,0.042-0.359,0.107-0.75,0.223c-0.057-0.359-0.112-0.713-0.167-1.066
		c0.293,0.032,0.597,0.124,0.877,0.076c0.256-0.043,0.529-0.193,0.719-0.375c1.356-1.294,3.036-2.41,3.945-3.971
		c1.062-1.824,2.101-3.877,1.692-6.203c-0.07-0.401-0.149-0.802-0.226-1.202c-0.44-2.305,0.378-3.326,2.776-3.455
		c0.321-0.017,0.644-0.002,0.967-0.002c-0.038-1.355-0.774-2.488-1.684-2.623c-0.76-0.113-2.729,1.235-3.027,2.009
		c-0.177,0.46-0.51,1.26-0.709,1.241c-0.905-0.086-1.885-0.242-2.234-1.35c-0.159-0.504-0.356-0.998-0.563-1.486
		c-0.48-1.138-1.084-1.258-2.069-0.578c-0.609,0.42-1.308,0.83-2.02,0.964c-7.085,1.343-14.155,2.808-21.285,3.866
		c-4.537,0.673-9.17,0.943-13.753,0.061c-0.358-0.069-0.742-0.438-0.944-0.771c-0.286-0.469-0.415-1.036-0.611-1.561
		C4.735,12.919,4.735,12.674,4.735,12.43z"/>
	<path fill-rule="evenodd" clip-rule="evenodd" fill="#FFFFFF" d="M29.527,30.463c-0.108,1.338,1.302,1.712,2.202,2.213
		c0.905,0.504,2.149,0.397,3.397,0.581c-0.164,0.52-0.371,1.179-0.647,2.055c-2.146-1.385-4.342-2.375-5.678-4.779
		c0.039,0.401,0.044,0.63,0.088,0.853c0.045,0.229,0.13,0.448,0.197,0.671c-0.09,0.043-0.18,0.086-0.271,0.129
		c-0.4-0.754-0.805-1.507-1.2-2.263c-0.32-0.614-0.594-1.254-0.952-1.846c-2.015-3.336-0.109-7.012,1.917-8.958
		c2.766-2.656,7.561-2.081,9.623,0.851c1.162,1.649,2.322,3.22,4.742,3.774c-0.646,0.655-1.003,1.132-1.467,1.454
		c-0.491,0.342-0.969,0.509-0.615,1.299c0.342,0.76,0.721,1.132,1.567,0.809c0.238-0.09,0.514-0.083,0.891,0.124
		c-0.418,0.263-0.804,0.629-1.259,0.771c-3.536,1.101-7.069,2.219-10.648,3.163C30.88,31.504,30.114,30.762,29.527,30.463z"/>
	<path fill-rule="evenodd" clip-rule="evenodd" fill="#FFFFFF" d="M58.033,8.106c0.541-0.44,0.896-0.919,1.355-1.06
		c0.779-0.238,1.623-0.264,2.553-0.395c0,1.298,0.282,2.247-0.837,2.993c-0.435,0.291-0.448,1.214-0.696,1.979
		c-0.533-2.535-3.19-1.37-4.473-2.893c0.382,0,0.74-0.053,1.075,0.011C57.851,8.903,58.32,8.756,58.033,8.106z"/>
	<path fill-rule="evenodd" clip-rule="evenodd" fill="#FFFFFF" d="M39.557,32.046c0.719,1.814,0.572,2.167-1.12,2.538
		c-1.011,0.222-2.043,0.347-3.187,0.536c0.22-1.352,0.428-2.426,2.002-2.521C38.002,32.554,38.737,32.251,39.557,32.046z"/>
	<path fill-rule="evenodd" clip-rule="evenodd" fill="#FFFFFF" d="M42.68,30.897c0.495,1.966,0.284,2.25-1.96,2.755
		C39.949,31.854,39.949,31.854,42.68,30.897z"/>
	<path fill-rule="evenodd" clip-rule="evenodd" fill="#FFFFFF" d="M36.232,32.291c0.33-1.784,0.588-1.972,2.807-2.231
		c0.695,1.22,0.656,1.341-0.671,1.716C37.714,31.961,37.047,32.096,36.232,32.291z"/>
	<path fill-rule="evenodd" clip-rule="evenodd" fill="#FFFFFF" d="M35.918,31.189c-0.244,0.409-0.437,1.123-0.739,1.172
		c-1.121,0.184-2.332,0.653-3.716-0.385c1.611-0.398,2.915-0.72,4.219-1.042C35.761,31.019,35.839,31.105,35.918,31.189z"/>
	<path fill-rule="evenodd" clip-rule="evenodd" fill="#FFFFFF" d="M40.143,31.197c-0.65-1.591-0.65-1.591,2.009-2.262
		c0.138,0.373,0.28,0.761,0.436,1.185c-0.332,0.184-0.565,0.338-0.818,0.444C41.253,30.781,40.727,30.973,40.143,31.197z"/>
</g>
<g>
	<path fill="#FFFFFF" d="M105.658,52.115c3.36-0.12,3.84-0.56,3.881-3.601V30.75c-0.041-3.001-0.48-3.401-3.881-3.601v-0.76h11.882
		v0.76c-3.32,0.12-3.841,0.6-3.921,3.601v17.764c0.08,2.96,0.641,3.521,3.921,3.601v0.76h-11.882V52.115z"/>
	<path fill="#FFFFFF" d="M118.899,26.389h10.563c3.761,0,7.241,1.121,8.842,2.881c1.08,1.16,1.64,2.681,1.64,4.361
		c0,2.641-1.439,5.081-3.84,6.361c-1.721,0.96-3.842,1.36-7.002,1.36c-1.04,0-1.721-0.04-2.761-0.12v7.282
		c0.04,2.96,0.601,3.521,3.761,3.601v0.76h-11.202v-0.76c3.04-0.28,3.321-0.64,3.36-4.041V30.75c-0.039-2.921-0.4-3.281-3.36-3.601
		V26.389z M126.341,39.632c0.921,0.08,1.48,0.12,2.28,0.12c4.602,0,6.962-2,6.962-5.881c0-4.121-2.48-6.001-7.882-6.001
		c-1.08,0-1.36,0.28-1.36,1.36V39.632z"/>
	<path fill="#FFFFFF" d="M151.385,27.149c-3.12,0.16-3.641,0.68-3.721,3.601v18.924c0.04,1.44,0.36,1.561,3.441,1.64h2.68
		c5.162-0.16,6.882-1.2,8.762-5.401h1.001l-1.921,6.961h-21.524v-0.76c2.881-0.16,3.401-0.72,3.481-3.601V30.75
		c-0.08-2.881-0.561-3.401-3.481-3.601v-0.76h11.282V27.149z"/>
	<path fill="#FFFFFF" d="M174.707,26.389h10.563c3.762,0,7.242,1.121,8.842,2.881c1.08,1.16,1.641,2.681,1.641,4.361
		c0,2.641-1.44,5.081-3.841,6.361c-1.72,0.96-3.841,1.36-7.001,1.36c-1.041,0-1.721-0.04-2.762-0.12v7.282
		c0.041,2.96,0.601,3.521,3.762,3.601v0.76h-11.203v-0.76c3.041-0.28,3.321-0.64,3.361-4.041V30.75
		c-0.04-2.921-0.4-3.281-3.361-3.601V26.389z M182.148,39.632c0.921,0.08,1.48,0.12,2.281,0.12c4.602,0,6.961-2,6.961-5.881
		c0-4.121-2.48-6.001-7.881-6.001c-1.08,0-1.361,0.28-1.361,1.36V39.632z"/>
	<path fill="#FFFFFF" d="M221.717,52.875h-6.441l-9.521-12.323l-2.241,0.08v7.882c0.04,2.92,0.521,3.401,3.601,3.601v0.76h-11.082
		v-0.76c3-0.24,3.361-0.64,3.4-4.041V30.75c-0.039-2.921-0.439-3.281-3.4-3.601v-0.76h11.043c3.76,0,7.081,1.041,8.602,2.681
		c1.04,1.16,1.561,2.641,1.561,4.361c0,3.681-2.161,5.682-7.242,6.682l8.242,10.122c1.16,1.36,1.96,1.76,3.48,1.88V52.875z
		 M203.513,39.152c3.841-0.08,5.241-0.32,7.081-1.36c1.441-0.76,2.281-2.441,2.281-4.441c0-3.761-2.32-5.481-7.322-5.481
		c-1.6,0-2.04,0.32-2.04,1.44V39.152z"/>
	<path fill="#FFFFFF" d="M245.039,52.875h-21.604v-0.76c2.881-0.16,3.401-0.72,3.481-3.601V30.75
		c-0.08-2.881-0.561-3.401-3.481-3.601v-0.76h21.245l0.119,5.721h-1c-0.641-3.561-1.439-4.121-6.081-4.201h-5.401
		c-1.12,0-1.28,0.16-1.32,1.36v8.882h6.162c3.36-0.08,3.92-0.56,4.4-3.801h0.92v9.282h-0.92c-0.52-3.28-1.04-3.761-4.4-3.841h-6.162
		v9.882c0,1.561,0.04,1.6,4.201,1.72h1.08c5.721-0.04,7.521-1.04,9.441-5.281h1.121L245.039,52.875z"/>
	<path fill="#FFFFFF" d="M248.038,52.115c3.001-0.2,3.481-0.68,3.521-3.601V30.75c-0.039-3.001-0.359-3.321-3.521-3.601v-0.76
		h10.802c5.482,0,9.843,1.44,12.563,4.201c2.24,2.2,3.4,5.321,3.4,8.922c0,3.881-1.48,7.441-4.081,9.802
		c-2.48,2.24-6.682,3.561-11.322,3.561h-11.362V52.115z M255.64,49.754c0,1.28,0.479,1.64,2.081,1.64c3.48,0,5.801-0.48,7.842-1.64
		c3.24-1.88,4.881-5.241,4.881-9.962c0-4.321-1.641-7.761-4.762-9.922c-1.92-1.36-4.48-2-7.961-2c-1.681,0-2.081,0.32-2.081,1.561
		V49.754z"/>
	<path fill="#FFFFFF" d="M277.002,52.115c3.361-0.12,3.841-0.56,3.881-3.601V30.75c-0.04-3.001-0.48-3.401-3.881-3.601v-0.76h11.883
		v0.76c-3.321,0.12-3.842,0.6-3.922,3.601v17.764c0.08,2.96,0.641,3.521,3.922,3.601v0.76h-11.883V52.115z"/>
	<path fill="#FFFFFF" d="M313.488,34.831c-0.76-2.601-1.36-3.721-2.641-5.001c-1.601-1.561-3.681-2.4-5.961-2.4
		c-5.802,0-9.522,4.641-9.522,11.922c0,4.441,1.24,8.042,3.44,10.002c1.721,1.52,3.961,2.32,6.481,2.32
		c3.321,0,5.962-1.2,8.923-4.041l0.719,0.72c-2.4,3.241-6.4,5.081-10.922,5.081c-7.961,0-13.283-5.441-13.283-13.603
		c0-4.401,1.521-8.082,4.321-10.562c2.521-2.201,5.802-3.441,9.082-3.441c1.88,0,3.881,0.32,5.841,1
		c0.601,0.2,1.201,0.32,1.561,0.32c0.801,0,1.44-0.48,1.681-1.32h0.841l0.359,9.002H313.488z"/>
	<path fill="#FFFFFF" d="M334.41,52.875h-11.683v-0.76c3.36-0.2,3.721-0.6,3.761-4.041V28.07h-2.16
		c-4.602,0.08-5.441,0.76-6.361,5.121h-0.961l0.24-6.802h22.564l0.24,6.802h-0.96c-0.88-4.361-1.72-5.041-6.361-5.121h-2.16v20.444
		c0.04,2.92,0.56,3.44,3.841,3.601V52.875z"/>
	<path fill="#FFFFFF" d="M123.021,100.882h-11.683v-0.761c3.36-0.199,3.721-0.6,3.761-4.04V76.077h-2.16
		c-4.602,0.08-5.441,0.76-6.361,5.121h-0.961l0.24-6.802h22.564l0.24,6.802h-0.96c-0.88-4.361-1.72-5.041-6.361-5.121h-2.16v20.445
		c0.04,2.92,0.56,3.439,3.841,3.6V100.882z"/>
	<path fill="#FFFFFF" d="M130.621,100.121c3.12-0.199,3.48-0.64,3.52-4.04V78.757c-0.039-2.961-0.439-3.361-3.52-3.601v-0.76h11.121
		v0.76c-3.08,0.28-3.48,0.68-3.52,3.601v7.761h12.122v-7.761c-0.04-2.961-0.44-3.361-3.521-3.601v-0.76h11.122v0.76
		c-3.081,0.28-3.48,0.68-3.521,3.601v17.764c0.04,2.88,0.52,3.36,3.521,3.6v0.761h-11.122v-0.761c3.121-0.199,3.48-0.64,3.521-4.04
		v-7.802h-12.122v8.242c0.039,2.88,0.52,3.36,3.52,3.6v0.761h-11.121V100.121z"/>
	<path fill="#FFFFFF" d="M180.829,100.882h-21.604v-0.761c2.881-0.16,3.4-0.72,3.48-3.6V78.757c-0.08-2.881-0.561-3.401-3.48-3.601
		v-0.76h21.244l0.12,5.721h-1.001c-0.64-3.561-1.439-4.121-6.08-4.201h-5.402c-1.119,0-1.279,0.16-1.32,1.36v8.882h6.162
		c3.361-0.08,3.921-0.56,4.4-3.801h0.921v9.282h-0.921c-0.52-3.28-1.039-3.761-4.4-3.841h-6.162v9.883c0,1.561,0.041,1.6,4.201,1.72
		h1.08c5.722-0.04,7.521-1.04,9.442-5.28h1.12L180.829,100.882z"/>
	<path fill="#FFFFFF" d="M230.477,75.156c-2.12,0.4-2.561,0.76-3.32,2.841c-4.361,11.762-4.762,12.883-8.162,23.325h-0.6
		l-6.401-16.924l-6.161,16.924h-0.601l-7.722-21.485c-1.48-3.761-2.08-4.481-4.121-4.681v-0.76h9.803v0.76
		c-2.041,0.12-2.602,0.4-2.602,1.28c0,0.44,0.16,1.12,0.441,1.84l5.761,15.043l4.28-11.283l-1.32-3.28
		c-1.359-3.201-1.76-3.561-4.041-3.601v-0.76h10.684v0.76c-2.161,0.04-3.081,0.44-3.081,1.4c0,0.44,0.239,1.2,0.601,2.041
		c0.039,0.12,0.399,1,0.479,1.2l5.281,13.643l5.001-13.563c0.4-1.12,0.641-2.201,0.641-3c0-1.081-0.721-1.521-2.762-1.721v-0.76
		h7.922V75.156z"/>
	<path fill="#FFFFFF" d="M232.394,100.121c3.36-0.119,3.841-0.56,3.881-3.6V78.757c-0.04-3.001-0.479-3.401-3.881-3.601v-0.76
		h11.882v0.76c-3.32,0.12-3.84,0.6-3.92,3.601v17.764c0.08,2.96,0.64,3.52,3.92,3.6v0.761h-11.882V100.121z"/>
	<path fill="#FFFFFF" d="M273.281,75.156c-3.16,0.28-3.681,0.96-3.801,5.121v21.045h-0.68l-17.685-22.005V95
		c0.08,4.121,0.681,4.961,3.761,5.121v0.761h-9.402v-0.761c3.281-0.199,3.801-0.879,3.881-5.121V77.357
		c-1.6-1.88-2.16-2.201-3.881-2.201v-0.76h6.842L267.72,93.76V80.277c-0.12-4.241-0.64-4.921-3.841-5.121v-0.76h9.402V75.156z"/>
	<path fill="#FFFFFF" d="M302.165,75.156c-3.161,0.28-3.681,0.96-3.801,5.121v21.045h-0.681L280,79.317V95
		c0.08,4.121,0.68,4.961,3.762,5.121v0.761h-9.402v-0.761c3.28-0.199,3.801-0.879,3.881-5.121V77.357
		c-1.601-1.88-2.16-2.201-3.881-2.201v-0.76h6.842l15.402,19.364V80.277c-0.119-4.241-0.64-4.921-3.841-5.121v-0.76h9.402V75.156z"
		/>
	<path fill="#FFFFFF" d="M324.847,100.882h-21.604v-0.761c2.881-0.16,3.4-0.72,3.48-3.6V78.757c-0.08-2.881-0.56-3.401-3.48-3.601
		v-0.76h21.244l0.121,5.721h-1.001c-0.64-3.561-1.44-4.121-6.081-4.201h-5.401c-1.12,0-1.28,0.16-1.32,1.36v8.882h6.161
		c3.361-0.08,3.922-0.56,4.401-3.801h0.92v9.282h-0.92c-0.521-3.28-1.04-3.761-4.401-3.841h-6.161v9.883
		c0,1.561,0.04,1.6,4.201,1.72h1.08c5.722-0.04,7.521-1.04,9.442-5.28h1.12L324.847,100.882z"/>
	<path fill="#FFFFFF" d="M353.571,100.882h-6.441l-9.522-12.323l-2.24,0.08v7.882c0.04,2.92,0.52,3.4,3.602,3.6v0.761h-11.083
		v-0.761c3.001-0.239,3.36-0.64,3.401-4.04V78.757c-0.041-2.921-0.441-3.281-3.401-3.601v-0.76h11.042
		c3.762,0,7.082,1.041,8.602,2.681c1.041,1.16,1.561,2.641,1.561,4.361c0,3.681-2.16,5.682-7.241,6.682l8.241,10.122
		c1.16,1.36,1.961,1.761,3.481,1.88V100.882z M335.367,87.159c3.841-0.08,5.241-0.32,7.082-1.36c1.439-0.76,2.28-2.441,2.28-4.441
		c0-3.761-2.321-5.481-7.321-5.481c-1.601,0-2.041,0.32-2.041,1.44V87.159z"/>
</g>
</svg>
